# xmcd
#
# Track frame offsets: 
#        170
#        35135
#        90302
#        122906
#        154426
#        170696
#        188780
#        213327
#
# Disc length: 3131 seconds
#
# Revision: 2
# Processed by: cddbd v1.5.2PL0 Copyright (c) Steve Scherf et al.
# Submitted via: ExactAudioCopy v0.99pb5
#
DISCID=6e0c3908
DTITLE=EDDIE MARTIN band - LIVE IN DE USA play the blues damn it!
DYEAR=1999
DGENRE=
TTITLE0=Answerphone Blues
TTITLE1=Hideaway
TTITLE2=See Red Blues
TTITLE3=Blue To The Bone
TTITLE4=Red Lights
TTITLE5=G-String Fling
TTITLE6=Cleanhead Blues
TTITLE7=Bird And The Bees
EXTD=
EXTT0=
EXTT1=
EXTT2=
EXTT3=
EXTT4=
EXTT5=
EXTT6=
EXTT7=
PLAYORDER=
